<?xml version="1.0" encoding="utf-8"?>
<svg xmlns="http://www.w3.org/2000/svg" xmlns:xlink="http://www.w3.org/1999/xlink" width="600" height="500" viewBox="0 0 2400 2000">
<defs>
  <clipPath id="clip410">
    <rect x="0" y="0" width="2400" height="2000"/>
  </clipPath>
</defs>
<path clip-path="url(#clip410)" d="M0 2000 L2400 2000 L2400 0 L0 0  Z" fill="#ffffff" fill-rule="evenodd" fill-opacity="1"/>
<defs>
  <clipPath id="clip411">
    <rect x="480" y="0" width="1681" height="1681"/>
  </clipPath>
</defs>
<path clip-path="url(#clip410)" d="M224.015 1798.66 L2068.92 1798.66 L2068.92 147.244 L224.015 147.244  Z" fill="#ffffff" fill-rule="evenodd" fill-opacity="1"/>
<defs>
  <clipPath id="clip412">
    <rect x="224" y="147" width="1846" height="1652"/>
  </clipPath>
</defs>
<polyline clip-path="url(#clip412)" style="stroke:#000000; stroke-linecap:round; stroke-linejoin:round; stroke-width:2; stroke-opacity:0.1; fill:none" points="520.162,1798.66 520.162,147.244 "/>
<polyline clip-path="url(#clip412)" style="stroke:#000000; stroke-linecap:round; stroke-linejoin:round; stroke-width:2; stroke-opacity:0.1; fill:none" points="866.109,1798.66 866.109,147.244 "/>
<polyline clip-path="url(#clip412)" style="stroke:#000000; stroke-linecap:round; stroke-linejoin:round; stroke-width:2; stroke-opacity:0.1; fill:none" points="1212.06,1798.66 1212.06,147.244 "/>
<polyline clip-path="url(#clip412)" style="stroke:#000000; stroke-linecap:round; stroke-linejoin:round; stroke-width:2; stroke-opacity:0.1; fill:none" points="1558,1798.66 1558,147.244 "/>
<polyline clip-path="url(#clip412)" style="stroke:#000000; stroke-linecap:round; stroke-linejoin:round; stroke-width:2; stroke-opacity:0.1; fill:none" points="1903.95,1798.66 1903.95,147.244 "/>
<polyline clip-path="url(#clip412)" style="stroke:#000000; stroke-linecap:round; stroke-linejoin:round; stroke-width:2; stroke-opacity:0.1; fill:none" points="224.015,1643.47 2068.92,1643.47 "/>
<polyline clip-path="url(#clip412)" style="stroke:#000000; stroke-linecap:round; stroke-linejoin:round; stroke-width:2; stroke-opacity:0.1; fill:none" points="224.015,1341.93 2068.92,1341.93 "/>
<polyline clip-path="url(#clip412)" style="stroke:#000000; stroke-linecap:round; stroke-linejoin:round; stroke-width:2; stroke-opacity:0.1; fill:none" points="224.015,1040.39 2068.92,1040.39 "/>
<polyline clip-path="url(#clip412)" style="stroke:#000000; stroke-linecap:round; stroke-linejoin:round; stroke-width:2; stroke-opacity:0.1; fill:none" points="224.015,738.845 2068.92,738.845 "/>
<polyline clip-path="url(#clip412)" style="stroke:#000000; stroke-linecap:round; stroke-linejoin:round; stroke-width:2; stroke-opacity:0.1; fill:none" points="224.015,437.302 2068.92,437.302 "/>
<polyline clip-path="url(#clip410)" style="stroke:#000000; stroke-linecap:round; stroke-linejoin:round; stroke-width:4; stroke-opacity:1; fill:none" points="224.015,1798.66 2068.92,1798.66 "/>
<polyline clip-path="url(#clip410)" style="stroke:#000000; stroke-linecap:round; stroke-linejoin:round; stroke-width:4; stroke-opacity:1; fill:none" points="520.162,1798.66 520.162,1779.76 "/>
<polyline clip-path="url(#clip410)" style="stroke:#000000; stroke-linecap:round; stroke-linejoin:round; stroke-width:4; stroke-opacity:1; fill:none" points="866.109,1798.66 866.109,1779.76 "/>
<polyline clip-path="url(#clip410)" style="stroke:#000000; stroke-linecap:round; stroke-linejoin:round; stroke-width:4; stroke-opacity:1; fill:none" points="1212.06,1798.66 1212.06,1779.76 "/>
<polyline clip-path="url(#clip410)" style="stroke:#000000; stroke-linecap:round; stroke-linejoin:round; stroke-width:4; stroke-opacity:1; fill:none" points="1558,1798.66 1558,1779.76 "/>
<polyline clip-path="url(#clip410)" style="stroke:#000000; stroke-linecap:round; stroke-linejoin:round; stroke-width:4; stroke-opacity:1; fill:none" points="1903.95,1798.66 1903.95,1779.76 "/>
<path clip-path="url(#clip410)" d="M489.63 1844.23 L519.306 1844.23 L519.306 1848.17 L489.63 1848.17 L489.63 1844.23 Z" fill="#000000" fill-rule="nonzero" fill-opacity="1" /><path clip-path="url(#clip410)" d="M543.565 1842.43 Q546.921 1843.14 548.796 1845.41 Q550.695 1847.68 550.695 1851.01 Q550.695 1856.13 547.176 1858.93 Q543.658 1861.73 537.176 1861.73 Q535 1861.73 532.685 1861.29 Q530.394 1860.87 527.94 1860.02 L527.94 1855.5 Q529.885 1856.64 532.199 1857.22 Q534.514 1857.8 537.037 1857.8 Q541.435 1857.8 543.727 1856.06 Q546.042 1854.32 546.042 1851.01 Q546.042 1847.96 543.889 1846.25 Q541.759 1844.51 537.94 1844.51 L533.912 1844.51 L533.912 1840.67 L538.125 1840.67 Q541.574 1840.67 543.403 1839.3 Q545.232 1837.91 545.232 1835.32 Q545.232 1832.66 543.334 1831.25 Q541.459 1829.81 537.94 1829.81 Q536.019 1829.81 533.82 1830.23 Q531.621 1830.64 528.982 1831.52 L528.982 1827.36 Q531.644 1826.62 533.959 1826.25 Q536.297 1825.87 538.357 1825.87 Q543.681 1825.87 546.783 1828.31 Q549.884 1830.71 549.884 1834.83 Q549.884 1837.7 548.241 1839.69 Q546.597 1841.66 543.565 1842.43 Z" fill="#000000" fill-rule="nonzero" fill-opacity="1" /><path clip-path="url(#clip410)" d="M866.109 1829.58 Q862.498 1829.58 860.669 1833.14 Q858.863 1836.68 858.863 1843.81 Q858.863 1850.92 860.669 1854.49 Q862.498 1858.03 866.109 1858.03 Q869.743 1858.03 871.549 1854.49 Q873.377 1850.92 873.377 1843.81 Q873.377 1836.68 871.549 1833.14 Q869.743 1829.58 866.109 1829.58 M866.109 1825.87 Q871.919 1825.87 874.974 1830.48 Q878.053 1835.06 878.053 1843.81 Q878.053 1852.54 874.974 1857.15 Q871.919 1861.73 866.109 1861.73 Q860.299 1861.73 857.22 1857.15 Q854.164 1852.54 854.164 1843.81 Q854.164 1835.06 857.22 1830.48 Q860.299 1825.87 866.109 1825.87 Z" fill="#000000" fill-rule="nonzero" fill-opacity="1" /><path clip-path="url(#clip410)" d="M1216.3 1842.43 Q1219.66 1843.14 1221.53 1845.41 Q1223.43 1847.68 1223.43 1851.01 Q1223.43 1856.13 1219.91 1858.93 Q1216.4 1861.73 1209.91 1861.73 Q1207.74 1861.73 1205.42 1861.29 Q1203.13 1860.87 1200.68 1860.02 L1200.68 1855.5 Q1202.62 1856.64 1204.94 1857.22 Q1207.25 1857.8 1209.78 1857.8 Q1214.17 1857.8 1216.46 1856.06 Q1218.78 1854.32 1218.78 1851.01 Q1218.78 1847.96 1216.63 1846.25 Q1214.5 1844.51 1210.68 1844.51 L1206.65 1844.51 L1206.65 1840.67 L1210.86 1840.67 Q1214.31 1840.67 1216.14 1839.3 Q1217.97 1837.91 1217.97 1835.32 Q1217.97 1832.66 1216.07 1831.25 Q1214.2 1829.81 1210.68 1829.81 Q1208.76 1829.81 1206.56 1830.23 Q1204.36 1830.64 1201.72 1831.52 L1201.72 1827.36 Q1204.38 1826.62 1206.7 1826.25 Q1209.03 1825.87 1211.09 1825.87 Q1216.42 1825.87 1219.52 1828.31 Q1222.62 1830.71 1222.62 1834.83 Q1222.62 1837.7 1220.98 1839.69 Q1219.34 1841.66 1216.3 1842.43 Z" fill="#000000" fill-rule="nonzero" fill-opacity="1" /><path clip-path="url(#clip410)" d="M1558.41 1841.92 Q1555.26 1841.92 1553.41 1844.07 Q1551.58 1846.22 1551.58 1849.97 Q1551.58 1853.7 1553.41 1855.87 Q1555.26 1858.03 1558.41 1858.03 Q1561.55 1858.03 1563.38 1855.87 Q1565.24 1853.7 1565.24 1849.97 Q1565.24 1846.22 1563.38 1844.07 Q1561.55 1841.92 1558.41 1841.92 M1567.69 1827.26 L1567.69 1831.52 Q1565.93 1830.69 1564.12 1830.25 Q1562.34 1829.81 1560.58 1829.81 Q1555.95 1829.81 1553.5 1832.93 Q1551.07 1836.06 1550.72 1842.38 Q1552.09 1840.37 1554.15 1839.3 Q1556.21 1838.21 1558.68 1838.21 Q1563.89 1838.21 1566.9 1841.38 Q1569.93 1844.53 1569.93 1849.97 Q1569.93 1855.3 1566.79 1858.51 Q1563.64 1861.73 1558.41 1861.73 Q1552.41 1861.73 1549.24 1857.15 Q1546.07 1852.54 1546.07 1843.81 Q1546.07 1835.62 1549.96 1830.76 Q1553.85 1825.87 1560.4 1825.87 Q1562.16 1825.87 1563.94 1826.22 Q1565.74 1826.57 1567.69 1827.26 Z" fill="#000000" fill-rule="nonzero" fill-opacity="1" /><path clip-path="url(#clip410)" d="M1894.25 1860.34 L1894.25 1856.08 Q1896.01 1856.92 1897.81 1857.36 Q1899.62 1857.8 1901.36 1857.8 Q1905.98 1857.8 1908.42 1854.69 Q1910.87 1851.57 1911.22 1845.23 Q1909.87 1847.22 1907.81 1848.28 Q1905.75 1849.35 1903.25 1849.35 Q1898.07 1849.35 1895.04 1846.22 Q1892.03 1843.07 1892.03 1837.63 Q1892.03 1832.31 1895.17 1829.09 Q1898.32 1825.87 1903.55 1825.87 Q1909.55 1825.87 1912.7 1830.48 Q1915.87 1835.06 1915.87 1843.81 Q1915.87 1851.99 1911.98 1856.87 Q1908.11 1861.73 1901.56 1861.73 Q1899.8 1861.73 1898 1861.38 Q1896.19 1861.04 1894.25 1860.34 M1903.55 1845.69 Q1906.7 1845.69 1908.53 1843.54 Q1910.38 1841.38 1910.38 1837.63 Q1910.38 1833.91 1908.53 1831.75 Q1906.7 1829.58 1903.55 1829.58 Q1900.41 1829.58 1898.55 1831.75 Q1896.73 1833.91 1896.73 1837.63 Q1896.73 1841.38 1898.55 1843.54 Q1900.41 1845.69 1903.55 1845.69 Z" fill="#000000" fill-rule="nonzero" fill-opacity="1" /><path clip-path="url(#clip410)" d="M1163.08 1907.88 L1150.19 1925.22 L1163.75 1943.52 L1156.85 1943.52 L1146.47 1929.52 L1136.09 1943.52 L1129.19 1943.52 L1143.03 1924.87 L1130.36 1907.88 L1137.27 1907.88 L1146.72 1920.58 L1156.18 1907.88 L1163.08 1907.88 Z" fill="#000000" fill-rule="nonzero" fill-opacity="1" /><polyline clip-path="url(#clip410)" style="stroke:#000000; stroke-linecap:round; stroke-linejoin:round; stroke-width:4; stroke-opacity:1; fill:none" points="224.015,1798.66 224.015,147.244 "/>
<polyline clip-path="url(#clip410)" style="stroke:#000000; stroke-linecap:round; stroke-linejoin:round; stroke-width:4; stroke-opacity:1; fill:none" points="224.015,1643.47 240.393,1643.47 "/>
<polyline clip-path="url(#clip410)" style="stroke:#000000; stroke-linecap:round; stroke-linejoin:round; stroke-width:4; stroke-opacity:1; fill:none" points="224.015,1341.93 240.393,1341.93 "/>
<polyline clip-path="url(#clip410)" style="stroke:#000000; stroke-linecap:round; stroke-linejoin:round; stroke-width:4; stroke-opacity:1; fill:none" points="224.015,1040.39 240.393,1040.39 "/>
<polyline clip-path="url(#clip410)" style="stroke:#000000; stroke-linecap:round; stroke-linejoin:round; stroke-width:4; stroke-opacity:1; fill:none" points="224.015,738.845 240.393,738.845 "/>
<polyline clip-path="url(#clip410)" style="stroke:#000000; stroke-linecap:round; stroke-linejoin:round; stroke-width:4; stroke-opacity:1; fill:none" points="224.015,437.302 240.393,437.302 "/>
<path clip-path="url(#clip410)" d="M126.487 1643.93 L156.163 1643.93 L156.163 1647.86 L126.487 1647.86 L126.487 1643.93 Z" fill="#000000" fill-rule="nonzero" fill-opacity="1" /><path clip-path="url(#clip410)" d="M166.395 1660.04 L166.395 1655.78 Q168.154 1656.61 169.959 1657.05 Q171.765 1657.49 173.501 1657.49 Q178.131 1657.49 180.561 1654.39 Q183.015 1651.26 183.362 1644.92 Q182.019 1646.91 179.959 1647.98 Q177.899 1649.04 175.399 1649.04 Q170.214 1649.04 167.182 1645.92 Q164.172 1642.77 164.172 1637.33 Q164.172 1632 167.32 1628.79 Q170.469 1625.57 175.7 1625.57 Q181.695 1625.57 184.844 1630.18 Q188.015 1634.76 188.015 1643.51 Q188.015 1651.68 184.126 1656.56 Q180.26 1661.43 173.709 1661.43 Q171.95 1661.43 170.145 1661.08 Q168.339 1660.73 166.395 1660.04 M175.7 1645.38 Q178.848 1645.38 180.677 1643.23 Q182.529 1641.08 182.529 1637.33 Q182.529 1633.6 180.677 1631.45 Q178.848 1629.27 175.7 1629.27 Q172.552 1629.27 170.7 1631.45 Q168.871 1633.6 168.871 1637.33 Q168.871 1641.08 170.7 1643.23 Q172.552 1645.38 175.7 1645.38 Z" fill="#000000" fill-rule="nonzero" fill-opacity="1" /><path clip-path="url(#clip410)" d="M126.14 1342.38 L155.816 1342.38 L155.816 1346.32 L126.14 1346.32 L126.14 1342.38 Z" fill="#000000" fill-rule="nonzero" fill-opacity="1" /><path clip-path="url(#clip410)" d="M176.487 1340.07 Q173.339 1340.07 171.487 1342.22 Q169.658 1344.37 169.658 1348.12 Q169.658 1351.85 171.487 1354.03 Q173.339 1356.18 176.487 1356.18 Q179.635 1356.18 181.464 1354.03 Q183.316 1351.85 183.316 1348.12 Q183.316 1344.37 181.464 1342.22 Q179.635 1340.07 176.487 1340.07 M185.769 1325.41 L185.769 1329.67 Q184.01 1328.84 182.205 1328.4 Q180.422 1327.96 178.663 1327.96 Q174.033 1327.96 171.58 1331.09 Q169.149 1334.21 168.802 1340.53 Q170.168 1338.52 172.228 1337.45 Q174.288 1336.36 176.765 1336.36 Q181.973 1336.36 184.982 1339.54 Q188.015 1342.68 188.015 1348.12 Q188.015 1353.45 184.867 1356.66 Q181.719 1359.88 176.487 1359.88 Q170.492 1359.88 167.32 1355.3 Q164.149 1350.69 164.149 1341.97 Q164.149 1333.77 168.038 1328.91 Q171.927 1324.03 178.478 1324.03 Q180.237 1324.03 182.019 1324.37 Q183.825 1324.72 185.769 1325.41 Z" fill="#000000" fill-rule="nonzero" fill-opacity="1" /><path clip-path="url(#clip410)" d="M126.95 1040.84 L156.626 1040.84 L156.626 1044.77 L126.95 1044.77 L126.95 1040.84 Z" fill="#000000" fill-rule="nonzero" fill-opacity="1" /><path clip-path="url(#clip410)" d="M180.885 1039.03 Q184.242 1039.75 186.117 1042.02 Q188.015 1044.29 188.015 1047.62 Q188.015 1052.74 184.496 1055.54 Q180.978 1058.34 174.496 1058.34 Q172.32 1058.34 170.006 1057.9 Q167.714 1057.48 165.26 1056.63 L165.26 1052.11 Q167.205 1053.25 169.52 1053.83 Q171.834 1054.4 174.357 1054.4 Q178.756 1054.4 181.047 1052.67 Q183.362 1050.93 183.362 1047.62 Q183.362 1044.57 181.209 1042.85 Q179.08 1041.12 175.26 1041.12 L171.233 1041.12 L171.233 1037.27 L175.445 1037.27 Q178.895 1037.27 180.723 1035.91 Q182.552 1034.52 182.552 1031.93 Q182.552 1029.27 180.654 1027.85 Q178.779 1026.42 175.26 1026.42 Q173.339 1026.42 171.14 1026.83 Q168.941 1027.25 166.302 1028.13 L166.302 1023.96 Q168.964 1023.22 171.279 1022.85 Q173.617 1022.48 175.677 1022.48 Q181.001 1022.48 184.103 1024.91 Q187.205 1027.32 187.205 1031.44 Q187.205 1034.31 185.561 1036.3 Q183.918 1038.27 180.885 1039.03 Z" fill="#000000" fill-rule="nonzero" fill-opacity="1" /><path clip-path="url(#clip410)" d="M176.07 724.644 Q172.459 724.644 170.631 728.209 Q168.825 731.75 168.825 738.88 Q168.825 745.986 170.631 749.551 Q172.459 753.093 176.07 753.093 Q179.705 753.093 181.51 749.551 Q183.339 745.986 183.339 738.88 Q183.339 731.75 181.51 728.209 Q179.705 724.644 176.07 724.644 M176.07 720.94 Q181.881 720.94 184.936 725.547 Q188.015 730.13 188.015 738.88 Q188.015 747.607 184.936 752.213 Q181.881 756.796 176.07 756.796 Q170.26 756.796 167.182 752.213 Q164.126 747.607 164.126 738.88 Q164.126 730.13 167.182 725.547 Q170.26 720.94 176.07 720.94 Z" fill="#000000" fill-rule="nonzero" fill-opacity="1" /><path clip-path="url(#clip410)" d="M180.885 435.948 Q184.242 436.666 186.117 438.934 Q188.015 441.203 188.015 444.536 Q188.015 449.652 184.496 452.453 Q180.978 455.253 174.496 455.253 Q172.32 455.253 170.006 454.814 Q167.714 454.397 165.26 453.54 L165.26 449.027 Q167.205 450.161 169.52 450.74 Q171.834 451.318 174.357 451.318 Q178.756 451.318 181.047 449.582 Q183.362 447.846 183.362 444.536 Q183.362 441.48 181.209 439.767 Q179.08 438.031 175.26 438.031 L171.233 438.031 L171.233 434.189 L175.445 434.189 Q178.895 434.189 180.723 432.823 Q182.552 431.434 182.552 428.842 Q182.552 426.18 180.654 424.767 Q178.779 423.332 175.26 423.332 Q173.339 423.332 171.14 423.749 Q168.941 424.166 166.302 425.045 L166.302 420.879 Q168.964 420.138 171.279 419.768 Q173.617 419.397 175.677 419.397 Q181.001 419.397 184.103 421.828 Q187.205 424.235 187.205 428.355 Q187.205 431.226 185.561 433.217 Q183.918 435.184 180.885 435.948 Z" fill="#000000" fill-rule="nonzero" fill-opacity="1" /><path clip-path="url(#clip410)" d="M79.1943 971.265 Q85.56 973.748 87.5016 976.103 Q89.4431 978.458 89.4431 982.405 L89.4431 987.084 L84.5415 987.084 L84.5415 983.646 Q84.5415 981.227 83.3957 979.891 Q82.2499 978.554 77.9848 976.931 L75.3112 975.88 L40.2362 990.299 L40.2362 984.092 L68.118 972.952 L40.2362 961.812 L40.2362 955.605 L79.1943 971.265 Z" fill="#000000" fill-rule="nonzero" fill-opacity="1" /><circle clip-path="url(#clip412)" cx="1254.13" cy="258.202" r="14.4" fill="#009af9" fill-rule="evenodd" fill-opacity="1" stroke="#000000" stroke-opacity="1" stroke-width="4"/>
<circle clip-path="url(#clip412)" cx="1419.9" cy="262.495" r="14.4" fill="#009af9" fill-rule="evenodd" fill-opacity="1" stroke="#000000" stroke-opacity="1" stroke-width="4"/>
<circle clip-path="url(#clip412)" cx="1342.74" cy="267.861" r="14.4" fill="#009af9" fill-rule="evenodd" fill-opacity="1" stroke="#000000" stroke-opacity="1" stroke-width="4"/>
<circle clip-path="url(#clip412)" cx="1366.41" cy="256.764" r="14.4" fill="#009af9" fill-rule="evenodd" fill-opacity="1" stroke="#000000" stroke-opacity="1" stroke-width="4"/>
<circle clip-path="url(#clip412)" cx="1272.05" cy="271.159" r="14.4" fill="#009af9" fill-rule="evenodd" fill-opacity="1" stroke="#000000" stroke-opacity="1" stroke-width="4"/>
<circle clip-path="url(#clip412)" cx="1290.78" cy="223.594" r="14.4" fill="#009af9" fill-rule="evenodd" fill-opacity="1" stroke="#000000" stroke-opacity="1" stroke-width="4"/>
<circle clip-path="url(#clip412)" cx="1361.44" cy="260.386" r="14.4" fill="#009af9" fill-rule="evenodd" fill-opacity="1" stroke="#000000" stroke-opacity="1" stroke-width="4"/>
<circle clip-path="url(#clip412)" cx="1394.79" cy="193.982" r="14.4" fill="#009af9" fill-rule="evenodd" fill-opacity="1" stroke="#000000" stroke-opacity="1" stroke-width="4"/>
<circle clip-path="url(#clip412)" cx="1315.8" cy="260.581" r="14.4" fill="#009af9" fill-rule="evenodd" fill-opacity="1" stroke="#000000" stroke-opacity="1" stroke-width="4"/>
<circle clip-path="url(#clip412)" cx="1324.5" cy="286.256" r="14.4" fill="#009af9" fill-rule="evenodd" fill-opacity="1" stroke="#000000" stroke-opacity="1" stroke-width="4"/>
<circle clip-path="url(#clip412)" cx="1913.82" cy="1300.54" r="14.4" fill="#e26f46" fill-rule="evenodd" fill-opacity="1" stroke="#000000" stroke-opacity="1" stroke-width="4"/>
<circle clip-path="url(#clip412)" cx="1922.02" cy="1291.32" r="14.4" fill="#e26f46" fill-rule="evenodd" fill-opacity="1" stroke="#000000" stroke-opacity="1" stroke-width="4"/>
<circle clip-path="url(#clip412)" cx="1904.81" cy="1331.67" r="14.4" fill="#e26f46" fill-rule="evenodd" fill-opacity="1" stroke="#000000" stroke-opacity="1" stroke-width="4"/>
<circle clip-path="url(#clip412)" cx="2016.71" cy="1286.88" r="14.4" fill="#e26f46" fill-rule="evenodd" fill-opacity="1" stroke="#000000" stroke-opacity="1" stroke-width="4"/>
<circle clip-path="url(#clip412)" cx="1861.39" cy="1194.75" r="14.4" fill="#e26f46" fill-rule="evenodd" fill-opacity="1" stroke="#000000" stroke-opacity="1" stroke-width="4"/>
<circle clip-path="url(#clip412)" cx="591.35" cy="1651.1" r="14.4" fill="#3da44d" fill-rule="evenodd" fill-opacity="1" stroke="#000000" stroke-opacity="1" stroke-width="4"/>
<circle clip-path="url(#clip412)" cx="276.229" cy="1651.63" r="14.4" fill="#3da44d" fill-rule="evenodd" fill-opacity="1" stroke="#000000" stroke-opacity="1" stroke-width="4"/>
<circle clip-path="url(#clip412)" cx="388.223" cy="1626.6" r="14.4" fill="#3da44d" fill-rule="evenodd" fill-opacity="1" stroke="#000000" stroke-opacity="1" stroke-width="4"/>
<circle clip-path="url(#clip412)" cx="590.324" cy="1751.92" r="14.4" fill="#3da44d" fill-rule="evenodd" fill-opacity="1" stroke="#000000" stroke-opacity="1" stroke-width="4"/>
<circle clip-path="url(#clip412)" cx="420.683" cy="1742.38" r="14.4" fill="#3da44d" fill-rule="evenodd" fill-opacity="1" stroke="#000000" stroke-opacity="1" stroke-width="4"/>
<path clip-path="url(#clip410)" d="M224.015 100 L2352.76 100 L2352.76 0 L224.015 0  Z" fill="#ffffff" fill-rule="evenodd" fill-opacity="1"/>
<defs>
  <clipPath id="clip413">
    <rect x="224" y="0" width="2130" height="101"/>
  </clipPath>
</defs>
<path clip-path="url(#clip410)" d="M1193.5 21.5091 L1193.5 75.2589 L1204.8 75.2589 Q1219.1 75.2589 1225.72 68.7774 Q1232.39 62.296 1232.39 48.3146 Q1232.39 34.4257 1225.72 27.9906 Q1219.1 21.5091 1204.8 21.5091 L1193.5 21.5091 M1184.15 13.824 L1203.36 13.824 Q1223.46 13.824 1232.85 22.2036 Q1242.25 30.5369 1242.25 48.3146 Q1242.25 66.1848 1232.81 74.5644 Q1223.36 82.944 1203.36 82.944 L1184.15 82.944 L1184.15 13.824 Z" fill="#000000" fill-rule="nonzero" fill-opacity="1" /><path clip-path="url(#clip410)" d="M1280.35 56.8793 Q1270.03 56.8793 1266.05 59.2404 Q1262.07 61.6015 1262.07 67.2959 Q1262.07 71.8329 1265.03 74.5181 Q1268.04 77.157 1273.18 77.157 Q1280.26 77.157 1284.52 72.157 Q1288.83 67.1108 1288.83 58.7775 L1288.83 56.8793 L1280.35 56.8793 M1297.34 53.3608 L1297.34 82.944 L1288.83 82.944 L1288.83 75.0737 Q1285.91 79.7959 1281.56 82.0644 Q1277.2 84.2866 1270.91 84.2866 Q1262.95 84.2866 1258.22 79.8422 Q1253.55 75.3514 1253.55 67.8515 Q1253.55 59.1015 1259.38 54.6571 Q1265.26 50.2127 1276.88 50.2127 L1288.83 50.2127 L1288.83 49.3794 Q1288.83 43.4998 1284.94 40.3053 Q1281.09 37.0646 1274.1 37.0646 Q1269.66 37.0646 1265.45 38.1294 Q1261.23 39.1942 1257.34 41.3239 L1257.34 33.4535 Q1262.02 31.648 1266.42 30.7684 Q1270.82 29.8424 1274.98 29.8424 Q1286.23 29.8424 1291.79 35.6757 Q1297.34 41.509 1297.34 53.3608 Z" fill="#000000" fill-rule="nonzero" fill-opacity="1" /><path clip-path="url(#clip410)" d="M1323.32 16.3703 L1323.32 31.0924 L1340.86 31.0924 L1340.86 37.7128 L1323.32 37.7128 L1323.32 65.8608 Q1323.32 72.2033 1325.03 74.0089 Q1326.79 75.8144 1332.11 75.8144 L1340.86 75.8144 L1340.86 82.944 L1332.11 82.944 Q1322.25 82.944 1318.5 79.2866 Q1314.75 75.5829 1314.75 65.8608 L1314.75 37.7128 L1308.5 37.7128 L1308.5 31.0924 L1314.75 31.0924 L1314.75 16.3703 L1323.32 16.3703 Z" fill="#000000" fill-rule="nonzero" fill-opacity="1" /><path clip-path="url(#clip410)" d="M1375.63 56.8793 Q1365.31 56.8793 1361.32 59.2404 Q1357.34 61.6015 1357.34 67.2959 Q1357.34 71.8329 1360.31 74.5181 Q1363.32 77.157 1368.45 77.157 Q1375.54 77.157 1379.8 72.157 Q1384.1 67.1108 1384.1 58.7775 L1384.1 56.8793 L1375.63 56.8793 M1392.62 53.3608 L1392.62 82.944 L1384.1 82.944 L1384.1 75.0737 Q1381.19 79.7959 1376.83 82.0644 Q1372.48 84.2866 1366.19 84.2866 Q1358.22 84.2866 1353.5 79.8422 Q1348.82 75.3514 1348.82 67.8515 Q1348.82 59.1015 1354.66 54.6571 Q1360.54 50.2127 1372.16 50.2127 L1384.1 50.2127 L1384.1 49.3794 Q1384.1 43.4998 1380.21 40.3053 Q1376.37 37.0646 1369.38 37.0646 Q1364.94 37.0646 1360.72 38.1294 Q1356.51 39.1942 1352.62 41.3239 L1352.62 33.4535 Q1357.3 31.648 1361.7 30.7684 Q1366.09 29.8424 1370.26 29.8424 Q1381.51 29.8424 1387.07 35.6757 Q1392.62 41.509 1392.62 53.3608 Z" fill="#000000" fill-rule="nonzero" fill-opacity="1" /></svg>
